<svg xmlns="http://www.w3.org/2000/svg" width="32" height="32"><g fill="#0F8534" fill-rule="evenodd" class="nc-icon-wrapper" clip-rule="evenodd"><path d="M17 1v5h-2V1h2Zm0 25v5h-2v-5h2Zm7-25v5h-2V1h2Zm0 25v5h-2v-5h2ZM10 1v5H8V1h2Zm0 25v5H8v-5h2Zm21-9h-5v-2h5v2ZM6 17H1v-2h5v2Zm25 7h-5v-2h5v2ZM6 24H1v-2h5v2Zm25-14h-5V8h5v2ZM6 10H1V8h5v2Z" data-color="color-2"/><path d="M4 8a4 4 0 0 1 4-4h16a4 4 0 0 1 4 4v16a4 4 0 0 1-4 4H8a4 4 0 0 1-4-4V8Zm14.588 5.37L16.01 7.558l-2.64 5.812-5.798 2.635 5.84 2.625L16 24.467l2.588-5.837L24.439 16l-5.851-2.63Z"/></g></svg>